HIERARCHY
ROOT SpineBase
{
  OFFSET 0.000000 0.000000 0.000000
  CHANNELS 6 Xposition Yposition Zposition Zrotation Xrotation Yrotation
  JOINT SpineMid
  {
    OFFSET 0.000000 25.974722 0.000000
    CHANNELS 3 Zrotation Xrotation Yrotation
    JOINT SpineShoulder
    {
      OFFSET -0.090591 19.332499 -0.614347
      CHANNELS 3 Zrotation Xrotation Yrotation
      JOINT Neck
      {
        OFFSET -0.053357 6.401806 -0.475218
        CHANNELS 3 Zrotation Xrotation Yrotation
        JOINT Head
        {
          OFFSET -3.023281 12.019895 0.446418
          CHANNELS 3 Zrotation Xrotation Yrotation
          End Site
          {
            OFFSET 0 0 0
          }
        }
      }
      JOINT ShoulderLeft
      {
        OFFSET -12.010997 -4.755739 7.953505
        CHANNELS 3 Zrotation Xrotation Yrotation
        JOINT ElbowLeft
        {
          OFFSET -0.295245 -20.292532 -11.582389
          CHANNELS 3 Zrotation Xrotation Yrotation
          JOINT WristLeft
          {
            OFFSET -1.203733 -19.447188 10.758617
            CHANNELS 3 Zrotation Xrotation Yrotation
            JOINT HandLeft
            {
              OFFSET -0.124154 -12.354353 3.527765
              CHANNELS 3 Zrotation Xrotation Yrotation
              JOINT HandTipLeft
              {
                OFFSET -0.797725 -6.194312 0.465407
                CHANNELS 3 Zrotation Xrotation Yrotation
                End Site
                {
                  OFFSET 0 0 0
                }
              }
              JOINT ThumbLeft
              {
                OFFSET 1.265912 -0.316904 -4.145616
                CHANNELS 3 Zrotation Xrotation Yrotation
                End Site
                {
                  OFFSET 0 0 0
                }
              }
            }
          }
        }
      }
      JOINT ShoulderRight
      {
        OFFSET 9.254342 -4.004560 -11.251909
        CHANNELS 3 Zrotation Xrotation Yrotation
        JOINT ElbowRight
        {
          OFFSET 7.736063 -18.418967 -3.432765
          CHANNELS 3 Zrotation Xrotation Yrotation
          JOINT WristRight
          {
            OFFSET -20.121535 -6.645435 -4.186853
            CHANNELS 3 Zrotation Xrotation Yrotation
            JOINT HandRight
            {
              OFFSET -6.023334 -0.517568 -0.371579
              CHANNELS 3 Zrotation Xrotation Yrotation
              JOINT HandTipRight
              {
                OFFSET -5.742703 0.235770 -0.846965
                CHANNELS 3 Zrotation Xrotation Yrotation
                End Site
                {
                  OFFSET 0 0 0
                }
              }
              JOINT ThumbRight
              {
                OFFSET 0.963930 2.120283 -3.363744
                CHANNELS 3 Zrotation Xrotation Yrotation
                End Site
                {
                  OFFSET 0 0 0
                }
              }
            }
          }
        }
      }
    }
  }
  JOINT HipLeft
  {
    OFFSET -5.313605 -0.172103 0.754088
    CHANNELS 3 Zrotation Xrotation Yrotation
    JOINT KneeLeft
    {
      OFFSET 5.345618 -31.373548 7.606885
      CHANNELS 3 Zrotation Xrotation Yrotation
      JOINT AnkleLeft
      {
        OFFSET 8.158947 -33.157947 8.403461
        CHANNELS 3 Zrotation Xrotation Yrotation
        JOINT FootLeft
        {
          OFFSET -5.034343 -3.065021 -8.408317
          CHANNELS 3 Zrotation Xrotation Yrotation
          End Site
          {
            OFFSET 0 0 0
          }
        }
      }
    }
  }
  JOINT HipRight
  {
    OFFSET 4.785248 1.286830 -6.857187
    CHANNELS 3 Zrotation Xrotation Yrotation
    JOINT KneeRight
    {
      OFFSET 7.863301 -27.980897 1.564652
      CHANNELS 3 Zrotation Xrotation Yrotation
      JOINT AnkleRight
      {
        OFFSET 8.081526 -35.520080 9.319617
        CHANNELS 3 Zrotation Xrotation Yrotation
        JOINT FootRight
        {
          OFFSET -5.714705 -2.458471 -9.180357
          CHANNELS 3 Zrotation Xrotation Yrotation
          End Site
          {
            OFFSET 0 0 0
          }
        }
      }
    }
  }
}
MOTION
Frames: 10
Frame Time: 0.033333
30.092443 74.706346 351.454586 -1.790118 0.785843 45.973699 -0.331838 0.139171 -46.029903 -0.187120 -0.025524 -0.103443 -0.777663 7.239719 2.461020 0.000000 0.000000 0.000000 33.314610 46.974226 -25.616315 -21.664418 -43.490468 -1.176273 -16.317098 10.103124 -3.615991 17.104155 -33.989114 9.022400 0.000000 0.000000 0.000000 0.000000 0.000000 0.000000 -45.147006 38.683125 47.319780 -52.670522 -10.668917 -36.174553 2.250339 -3.730424 -2.562840 10.451392 2.945278 5.648450 0.000000 0.000000 0.000000 0.000000 0.000000 0.000000 0.424156 0.967107 -46.184748 3.773228 -1.962755 0.661093 9.699478 -18.996984 5.749010 0.000000 0.000000 0.000000 -4.214602 -4.351887 -47.786158 -0.245255 7.203952 1.705643 5.513897 -8.347430 1.049493 0.000000 0.000000 0.000000
29.949560 74.070809 351.495193 -2.180237 0.635540 44.660024 -0.081140 0.057913 -44.718269 -0.161260 0.040507 -0.106212 -0.518134 7.848606 2.638300 0.000000 0.000000 0.000000 32.913133 47.932548 -25.303907 -10.453395 -26.277125 11.007721 -30.581146 0.776472 -17.782630 21.791432 -21.911374 10.095753 0.000000 0.000000 0.000000 0.000000 0.000000 0.000000 -46.357777 38.870243 48.598605 -53.954978 -11.304036 -36.251487 4.183670 -3.623859 -3.015567 8.302850 4.544138 4.221563 0.000000 0.000000 0.000000 0.000000 0.000000 0.000000 0.673182 0.220088 -44.871082 3.639506 -1.401889 0.708429 20.022737 -31.757534 13.426548 0.000000 0.000000 0.000000 -2.932477 -4.429715 -46.205535 -0.567428 5.862493 1.339693 9.796254 -13.891094 0.021796 0.000000 0.000000 0.000000
29.771461 73.277090 351.550483 -2.584948 0.464378 43.068442 0.216540 -0.009845 -43.128200 -0.174241 0.075788 -0.112140 -0.268050 8.348917 2.784372 0.000000 0.000000 0.000000 32.574491 48.834189 -25.015922 -0.149869 7.235881 25.902134 -53.946262 1.339258 -49.838235 26.987380 -18.479260 13.240905 0.000000 0.000000 0.000000 0.000000 0.000000 0.000000 -47.654940 39.393592 50.278240 -55.433241 -12.397802 -36.704207 4.698756 -0.980756 -5.701772 6.764873 2.623766 8.421392 0.000000 0.000000 0.000000 0.000000 0.000000 0.000000 1.020122 -0.621742 -43.265714 3.270014 -0.814528 0.694240 21.906639 -33.646447 15.090061 0.000000 0.000000 0.000000 -1.986796 -4.982640 -44.556639 -1.200255 5.747881 1.281297 11.481302 -16.120492 0.119966 0.000000 0.000000 0.000000
29.586317 72.405472 351.601000 -2.949046 0.291613 41.300520 0.499847 -0.057374 -41.362228 -0.227239 0.053910 -0.121913 0.072082 8.792748 2.889396 0.000000 0.000000 0.000000 32.558821 49.679914 -24.985303 3.383560 34.942402 38.770146 -65.696639 18.916780 -83.184121 30.114274 1.804127 18.903184 0.000000 0.000000 0.000000 0.000000 0.000000 0.000000 -48.846480 39.936115 51.921012 -55.883575 -13.091319 -37.740440 4.167231 -1.374116 -4.678388 3.655285 5.767667 5.390452 0.000000 0.000000 0.000000 0.000000 0.000000 0.000000 1.461268 -1.492378 -41.460196 2.713541 -0.208214 0.639704 24.545107 -35.835255 18.288872 0.000000 0.000000 0.000000 -0.727364 -5.113375 -42.566204 -1.600691 4.920913 1.049820 15.882320 -22.185835 -0.506654 0.000000 0.000000 0.000000
29.409211 71.551831 351.648772 -3.254572 0.141785 39.728036 0.719919 -0.066980 -39.793165 -0.320591 -0.008729 -0.136595 0.541495 9.224277 2.972603 0.000000 0.000000 0.000000 32.780015 50.392966 -25.098114 3.182177 46.759647 47.764358 -50.108459 37.161725 -110.731269 38.148233 8.075334 30.901889 0.000000 0.000000 0.000000 0.000000 0.000000 0.000000 -50.159558 40.481217 53.744258 -56.610569 -13.803211 -38.728279 3.776488 -1.373834 -4.100816 2.595788 8.107038 2.812440 0.000000 0.000000 0.000000 0.000000 0.000000 0.000000 2.413701 -2.188424 -39.677900 1.934301 -0.051152 0.476511 25.495502 -36.500376 20.800659 0.000000 0.000000 0.000000 -0.112821 -5.762671 -41.055765 -2.341617 5.649242 1.199744 18.682013 -26.066840 -0.343982 0.000000 0.000000 0.000000
29.263833 70.840088 351.705126 -3.490019 0.023213 38.112704 0.876484 -0.040539 -38.181773 -0.423472 -0.053343 -0.151352 0.910034 9.735880 3.095451 0.000000 0.000000 0.000000 33.366974 50.862454 -25.475398 2.787270 50.277509 53.181876 -31.044406 44.359488 -134.061572 41.277511 11.395854 39.818845 0.000000 0.000000 0.000000 0.000000 0.000000 0.000000 -51.248627 40.951366 55.341178 -57.271332 -14.314911 -39.647040 3.961488 -1.961251 -3.218943 1.923017 12.319199 -2.594960 0.000000 0.000000 0.000000 0.000000 0.000000 0.000000 2.732940 -2.171494 -38.060192 2.131159 -0.087971 0.517694 22.457400 -34.069570 20.621205 0.000000 0.000000 0.000000 0.570032 -5.895853 -39.372749 -2.320908 5.344095 1.158554 18.267040 -25.726509 -0.460045 0.000000 0.000000 0.000000
29.173249 70.356916 351.728242 -3.624180 -0.027093 36.964789 0.942066 -0.009157 -37.036682 -0.521769 -0.121553 -0.165636 1.124829 10.222001 3.221741 0.000000 0.000000 0.000000 34.202918 51.275024 -26.085320 3.690301 48.751019 55.581323 -21.470938 46.907294 -142.553593 43.392998 9.546895 42.069509 0.000000 0.000000 0.000000 0.000000 0.000000 0.000000 -52.336110 41.566602 57.059127 -58.274905 -14.652613 -40.639385 4.043285 -2.323128 -2.532531 2.927023 17.265035 -10.104437 0.000000 0.000000 0.000000 0.000000 0.000000 0.000000 2.800674 -3.331872 -36.938433 1.666569 0.909147 0.541051 32.832752 -41.056504 29.733616 0.000000 0.000000 0.000000 0.729842 -6.273514 -38.318024 -2.465735 5.947887 1.331911 15.509857 -22.178244 -0.566993 0.000000 0.000000 0.000000
29.145968 70.217580 351.711075 -3.670959 -0.002440 36.430814 0.869014 0.035795 -36.506334 -0.636600 -0.172744 -0.182431 1.483618 10.707842 3.346180 0.000000 0.000000 0.000000 35.109615 51.507176 -26.679615 6.469626 41.270940 54.567298 -23.135381 51.792286 -134.754573 46.595565 -0.465211 37.348369 0.000000 0.000000 0.000000 0.000000 0.000000 0.000000 -52.942131 42.377931 58.581360 -59.840521 -15.087589 -41.418854 3.409293 -1.145258 -3.094106 4.978869 13.811316 -6.772350 0.000000 0.000000 0.000000 0.000000 0.000000 0.000000 2.905181 -3.531727 -36.383441 1.570610 0.881141 0.502283 40.852458 -44.624334 36.840999 0.000000 0.000000 0.000000 0.928754 -6.206644 -37.724363 -2.481180 5.545348 1.220977 10.771504 -15.115829 -0.143185 0.000000 0.000000 0.000000
29.245754 70.548343 351.607488 -3.554589 0.158871 36.776911 0.689784 0.078892 -36.850953 -0.686791 -0.212540 -0.190813 1.595054 10.793494 3.390494 0.000000 0.000000 0.000000 35.793098 51.724504 -27.188527 6.066013 40.794297 54.453658 -21.815202 51.312079 -134.842316 49.284122 -3.559301 37.792270 0.000000 0.000000 0.000000 0.000000 0.000000 0.000000 -53.931555 42.711747 59.926710 -60.907894 -15.662141 -42.038733 2.163046 1.378044 -4.745148 7.722384 10.336499 -3.755242 0.000000 0.000000 0.000000 0.000000 0.000000 0.000000 2.420502 -3.393376 -36.822888 1.800737 0.734697 0.522786 30.414236 -39.258945 28.432035 0.000000 0.000000 0.000000 0.700241 -5.883795 -37.991984 -2.276510 4.804926 1.011238 9.535355 -12.784925 0.153796 0.000000 0.000000 0.000000
29.256576 70.517289 351.538449 -3.531486 0.275378 36.193669 0.583034 0.077968 -36.267588 -0.642739 -0.131748 -0.186559 1.619409 10.628160 3.378475 0.000000 0.000000 0.000000 36.498957 51.828902 -27.769681 6.048480 40.187392 55.468794 -18.417239 51.881586 -137.840380 52.734714 -5.923968 39.065009 0.000000 0.000000 0.000000 0.000000 0.000000 0.000000 -54.777376 42.879281 60.911673 -60.850351 -15.523064 -43.032306 1.057643 2.398668 -5.256552 9.412008 7.018729 0.242642 0.000000 0.000000 0.000000 0.000000 0.000000 0.000000 2.270565 -3.684512 -36.268880 1.588725 0.803482 0.466556 23.248283 -34.165425 21.602487 0.000000 0.000000 0.000000 0.387434 -6.480281 -37.596223 -3.015391 5.850651 1.208276 5.942761 -7.239942 1.460098 0.000000 0.000000 0.000000
